<?xml version="1.0" encoding="UTF-8"?>
<svg xmlns="http://www.w3.org/2000/svg" xmlns:xlink="http://www.w3.org/1999/xlink" width="150px" height="80px" viewBox="0 0 89 38" version="1.1">
<g id="surface1">
<path style=" stroke:none;fill-rule:evenodd;fill:rgb(23.921569%,22.352941%,20.784314%);fill-opacity:1;" d="M 0.121094 34.9375 C 0.121094 35.71875 0.394531 36.386719 0.945312 36.9375 C 1.492188 37.488281 2.15625 37.765625 2.929688 37.765625 L 86.070312 37.765625 C 86.84375 37.765625 87.507812 37.488281 88.054688 36.9375 C 88.605469 36.386719 88.878906 35.71875 88.878906 34.9375 L 88.878906 3.0625 C 88.878906 2.28125 88.605469 1.613281 88.054688 1.0625 C 87.507812 0.511719 86.84375 0.234375 86.070312 0.234375 L 2.929688 0.234375 C 2.15625 0.234375 1.492188 0.511719 0.945312 1.0625 C 0.394531 1.613281 0.121094 2.28125 0.121094 3.0625 Z M 2.929688 36.910156 C 2.390625 36.910156 1.925781 36.71875 1.546875 36.332031 C 1.160156 35.945312 0.96875 35.480469 0.96875 34.9375 L 0.96875 3.0625 C 0.96875 2.519531 1.160156 2.054688 1.546875 1.667969 C 1.925781 1.28125 2.390625 1.089844 2.929688 1.089844 L 86.070312 1.089844 C 86.609375 1.089844 87.074219 1.28125 87.453125 1.667969 C 87.839844 2.054688 88.03125 2.519531 88.03125 3.0625 L 88.03125 34.9375 C 88.03125 35.480469 87.839844 35.945312 87.453125 36.332031 C 87.074219 36.71875 86.609375 36.910156 86.070312 36.910156 Z M 2.929688 36.910156 "/>
<path style=" stroke:none;fill-rule:evenodd;fill:rgb(23.921569%,22.352941%,20.784314%);fill-opacity:1;" d="M 2.074219 34.9375 C 2.074219 35.414062 2.453125 35.800781 2.929688 35.800781 L 86.070312 35.800781 C 86.546875 35.800781 86.925781 35.414062 86.925781 34.9375 L 86.925781 3.0625 C 86.925781 2.585938 86.546875 2.199219 86.070312 2.199219 L 2.929688 2.199219 C 2.453125 2.199219 2.074219 2.585938 2.074219 3.0625 Z M 19.261719 9.730469 C 19.960938 9.902344 20.453125 10.457031 20.558594 11.1875 C 20.625 11.65625 20.582031 12.105469 20.472656 12.554688 C 20.28125 13.410156 19.917969 14.199219 19.453125 14.90625 C 18.859375 15.871094 18.132812 16.726562 17.328125 17.515625 C 16.625 18.203125 15.902344 18.84375 15.179688 19.53125 C 15.136719 19.574219 15.09375 19.617188 15.03125 19.660156 C 15.113281 19.691406 15.179688 19.6875 15.238281 19.679688 C 15.253906 19.679688 15.269531 19.679688 15.285156 19.679688 C 15.707031 19.660156 16.117188 19.679688 16.519531 19.785156 C 16.816406 19.847656 17.089844 19.980469 17.347656 20.128906 C 17.601562 20.300781 17.773438 20.425781 17.921875 20.644531 C 18.027344 20.75 18.15625 20.984375 18.261719 21.285156 C 18.285156 21.371094 18.390625 21.796875 18.347656 22.3125 C 18.347656 22.355469 18.347656 22.417969 18.328125 22.484375 C 18.285156 22.804688 18.199219 23.082031 18.089844 23.382812 C 17.625 24.753906 16.859375 25.929688 15.835938 26.933594 C 14.902344 27.851562 13.835938 28.582031 12.628906 29.09375 C 11.925781 29.375 11.203125 29.5 10.417969 29.433594 C 10.160156 29.433594 9.90625 29.375 9.652344 29.289062 C 9.054688 29.050781 8.675781 28.625 8.480469 28.023438 C 8.460938 27.960938 8.417969 27.894531 8.375 27.832031 C 8.375 27.703125 8.351562 27.578125 8.332031 27.425781 C 8.351562 27.382812 8.375 27.339844 8.375 27.296875 C 8.375 26.890625 8.523438 26.527344 8.71875 26.183594 C 9.035156 25.628906 9.4375 25.15625 9.90625 24.730469 C 10.628906 24.066406 11.460938 23.53125 12.351562 23.082031 C 12.351562 23.082031 13.921875 22.140625 16.902344 21.839844 C 16.964844 21.839844 17.15625 21.820312 17.347656 21.796875 C 17.328125 21.027344 17.03125 20.707031 17.03125 20.707031 C 16.835938 20.449219 16.542969 20.257812 16.242188 20.195312 C 15.902344 20.109375 15.585938 20.152344 15.261719 20.195312 C 15.007812 20.257812 14.730469 20.320312 14.476562 20.363281 C 14.265625 20.40625 14.050781 20.382812 13.859375 20.320312 C 13.800781 20.300781 13.734375 20.257812 13.691406 20.214844 C 13.519531 20.109375 13.5 20.023438 13.605469 19.871094 C 13.671875 19.785156 13.757812 19.703125 13.835938 19.617188 L 15.75 17.820312 C 16.644531 16.960938 17.476562 16.0625 18.175781 15.039062 C 18.753906 14.199219 19.21875 13.304688 19.539062 12.320312 C 19.6875 11.910156 19.773438 11.484375 19.773438 11.035156 C 19.753906 10.820312 19.730469 10.609375 19.601562 10.394531 C 19.496094 10.179688 19.347656 10.074219 19.089844 10.074219 C 18.859375 10.097656 18.625 10.132812 18.390625 10.242188 C 17.835938 10.480469 17.390625 10.84375 16.964844 11.25 C 16.21875 11.953125 15.585938 12.746094 15.007812 13.601562 C 14.222656 14.777344 13.542969 16 12.882812 17.21875 C 12.117188 18.613281 11.4375 20.042969 10.757812 21.457031 C 10.480469 22.054688 10.160156 22.628906 9.882812 23.207031 C 9.820312 23.335938 9.777344 23.488281 9.734375 23.617188 C 9.671875 23.894531 9.4375 23.980469 9.164062 23.871094 C 9.035156 23.828125 8.992188 23.785156 9.011719 23.660156 C 9.035156 23.53125 9.078125 23.402344 9.097656 23.292969 C 9.609375 20.214844 10.417969 17.242188 11.289062 14.308594 C 11.757812 12.683594 12.265625 11.058594 12.777344 9.433594 C 12.800781 9.300781 12.84375 9.171875 12.882812 9 L 12.714844 9.085938 C 12.074219 9.496094 11.460938 9.878906 10.839844 10.265625 C 10.503906 10.5 10.136719 10.710938 9.777344 10.929688 C 9.609375 11.035156 9.417969 11.101562 9.222656 11.164062 C 9.097656 11.230469 8.96875 11.207031 8.839844 11.144531 C 8.796875 11.121094 8.738281 11.058594 8.738281 11.015625 C 8.738281 10.992188 8.796875 10.949219 8.839844 10.929688 C 9.078125 10.90625 9.265625 10.796875 9.4375 10.671875 C 9.90625 10.394531 10.375 10.097656 10.839844 9.792969 C 11.417969 9.410156 11.988281 9.023438 12.585938 8.636719 C 12.734375 8.550781 12.882812 8.464844 13.074219 8.507812 C 13.179688 8.53125 13.265625 8.550781 13.351562 8.59375 C 13.542969 8.703125 13.628906 8.875 13.628906 9.066406 C 13.628906 9.238281 13.605469 9.410156 13.585938 9.578125 C 13.414062 10.457031 13.203125 11.3125 12.945312 12.148438 C 12.433594 13.988281 11.90625 15.804688 11.375 17.625 C 11.117188 18.546875 10.882812 19.488281 10.628906 20.40625 C 10.628906 20.414062 10.621094 20.421875 10.621094 20.429688 C 10.601562 20.484375 10.589844 20.523438 10.605469 20.578125 C 10.628906 20.535156 10.671875 20.46875 10.691406 20.40625 C 11.671875 18.308594 12.734375 16.277344 13.945312 14.308594 C 14.519531 13.347656 15.136719 12.445312 15.859375 11.613281 C 16.285156 11.121094 16.730469 10.691406 17.261719 10.308594 C 17.601562 10.074219 17.945312 9.835938 18.371094 9.730469 C 18.644531 9.664062 18.941406 9.644531 19.261719 9.730469 Z M 47.351562 29.5 L 47.730469 29.5 C 47.773438 29.476562 47.796875 29.457031 47.839844 29.457031 C 48.027344 29.390625 48.179688 29.332031 48.308594 29.203125 C 48.558594 29.007812 48.730469 28.773438 48.898438 28.515625 C 49.222656 28.023438 49.496094 27.535156 49.753906 27.019531 C 50.179688 26.140625 50.601562 25.265625 51.007812 24.363281 L 52.347656 21.265625 C 52.8125 20.128906 53.238281 19.015625 53.707031 17.90625 L 55.238281 14.375 C 55.28125 14.265625 55.347656 14.15625 55.382812 14.054688 L 55.382812 14.113281 C 55.324219 14.375 55.238281 14.632812 55.175781 14.886719 C 54.855469 16 54.535156 17.132812 54.238281 18.246094 C 53.878906 19.59375 53.578125 20.941406 53.347656 22.3125 C 53.238281 22.890625 53.152344 23.445312 53.089844 24.023438 C 53.027344 24.621094 52.984375 25.199219 52.941406 25.800781 C 52.898438 26.25 52.898438 26.675781 52.941406 27.105469 C 52.984375 27.316406 53.007812 27.511719 53.109375 27.703125 C 53.261719 28.003906 53.597656 28.109375 53.960938 28.023438 C 54.175781 27.980469 54.367188 27.875 54.511719 27.722656 C 54.707031 27.554688 54.878906 27.339844 55.003906 27.144531 C 55.382812 26.589844 55.707031 26.03125 56.003906 25.453125 C 56.519531 24.472656 57.042969 23.5 57.585938 22.53125 C 57.566406 22.671875 57.53125 22.808594 57.511719 22.953125 C 57.492188 23.105469 57.492188 23.25 57.46875 23.382812 C 57.46875 23.488281 57.511719 23.574219 57.621094 23.574219 C 57.832031 23.617188 58.105469 23.597656 58.277344 23.292969 L 58.554688 22.78125 C 58.894531 22.203125 59.300781 21.691406 59.789062 21.199219 C 59.832031 21.132812 59.894531 21.089844 59.976562 21.027344 C 59.976562 21.089844 59.976562 21.113281 59.960938 21.132812 C 59.894531 21.351562 59.832031 21.5625 59.746094 21.777344 C 59.617188 22.117188 59.507812 22.484375 59.449219 22.824219 C 59.429688 23.039062 59.429688 23.445312 59.789062 23.488281 C 60.496094 23.570312 61.269531 22.460938 61.4375 22.214844 L 61.445312 22.207031 C 61.503906 22.472656 61.640625 22.667969 61.847656 22.804688 C 62.128906 22.976562 62.445312 22.890625 62.660156 22.804688 C 62.914062 22.671875 63.171875 22.503906 63.359375 22.289062 C 63.460938 22.179688 63.558594 22.070312 63.648438 21.957031 C 63.625 22.214844 63.605469 22.511719 63.617188 22.695312 C 63.636719 22.847656 63.675781 22.996094 63.71875 23.148438 C 63.847656 23.554688 64.570312 23.660156 64.847656 23.1875 L 65.167969 22.695312 C 65.546875 22.015625 65.996094 21.351562 66.441406 20.6875 C 66.484375 20.621094 66.546875 20.535156 66.613281 20.492188 C 66.742188 20.40625 66.742188 20.28125 66.570312 20.238281 C 66.417969 20.195312 66.253906 20.195312 66.101562 20.382812 C 65.972656 20.535156 65.847656 20.6875 65.742188 20.859375 L 64.445312 22.738281 C 64.402344 22.804688 64.378906 22.867188 64.296875 22.910156 C 64.273438 22.71875 64.253906 22.570312 64.253906 22.398438 C 64.230469 21.972656 64.316406 21.539062 64.402344 21.113281 C 64.445312 20.941406 64.488281 20.773438 64.507812 20.578125 C 64.53125 20.535156 64.53125 20.46875 64.488281 20.425781 C 64.402344 20.320312 64.253906 20.339844 64.125 20.363281 C 64 20.382812 63.957031 20.46875 63.933594 20.578125 C 63.886719 20.726562 63.847656 20.878906 63.808594 21.03125 L 63.699219 21.199219 C 63.550781 21.476562 63.378906 21.734375 63.171875 21.992188 C 63.148438 22.03125 62.828125 22.375 62.550781 22.546875 C 62.550781 22.546875 62.273438 22.71875 62.171875 22.503906 C 62.148438 22.484375 62.148438 22.441406 62.128906 22.398438 C 62.105469 22.332031 62.105469 22.289062 62.105469 22.226562 C 62.085938 22.03125 62.085938 21.820312 62.128906 21.625 C 62.191406 21.414062 62.257812 21.175781 62.292969 20.941406 C 62.335938 20.859375 62.359375 20.75 62.359375 20.664062 C 62.378906 20.554688 62.359375 20.449219 62.257812 20.40625 C 62.148438 20.363281 62.042969 20.363281 61.933594 20.449219 L 61.828125 20.511719 C 61.828125 20.511719 61.667969 20.746094 61.546875 21.121094 L 61.445312 21.308594 C 61.378906 21.457031 61.300781 21.582031 61.234375 21.710938 C 61.214844 21.734375 61 22.074219 60.722656 22.417969 C 60.617188 22.527344 60.300781 22.890625 60.019531 22.953125 L 60.105469 22.546875 L 60.171875 22.289062 C 60.214844 22.160156 60.257812 22.054688 60.277344 21.929688 C 60.363281 21.625 60.464844 21.351562 60.53125 21.046875 C 60.59375 20.773438 60.464844 20.621094 60.191406 20.578125 C 60.0625 20.554688 59.917969 20.601562 59.808594 20.6875 C 59.660156 20.773438 59.53125 20.878906 59.40625 20.984375 C 59.042969 21.308594 58.746094 21.667969 58.46875 22.054688 C 58.449219 22.097656 58.40625 22.140625 58.363281 22.160156 C 58.425781 21.90625 58.511719 21.648438 58.574219 21.371094 C 58.660156 21.113281 58.722656 20.859375 58.789062 20.601562 C 58.832031 20.46875 58.765625 20.363281 58.636719 20.339844 C 58.574219 20.320312 58.511719 20.300781 58.425781 20.300781 C 58.300781 20.300781 58.234375 20.339844 58.191406 20.46875 C 58.128906 20.621094 58.089844 20.773438 58.046875 20.917969 L 57.976562 21.132812 L 57.894531 21.242188 C 57.277344 22.3125 56.664062 23.382812 56.089844 24.472656 C 55.726562 25.113281 55.382812 25.777344 54.980469 26.398438 C 54.792969 26.71875 54.578125 27.019531 54.304688 27.296875 C 54.195312 27.425781 54.066406 27.535156 53.898438 27.621094 C 53.855469 27.511719 53.835938 27.425781 53.8125 27.339844 C 53.769531 26.976562 53.769531 26.609375 53.8125 26.25 C 53.855469 25.5 53.941406 24.773438 54.066406 24.046875 C 54.238281 23.105469 54.410156 22.160156 54.597656 21.242188 C 54.917969 19.59375 55.347656 17.992188 55.832031 16.382812 C 56.195312 15.1875 56.554688 13.988281 56.832031 12.769531 C 56.960938 12.234375 57.089844 11.699219 57.132812 11.144531 C 57.152344 11.015625 57.152344 10.90625 57.109375 10.796875 C 57.066406 10.566406 56.894531 10.414062 56.640625 10.351562 C 56.535156 10.328125 56.46875 10.351562 56.425781 10.4375 C 56.382812 10.566406 56.339844 10.671875 56.277344 10.777344 C 55.492188 12.574219 54.726562 14.375 53.980469 16.191406 C 53.554688 17.242188 53.132812 18.289062 52.683594 19.316406 C 52.304688 20.238281 51.921875 21.15625 51.515625 22.074219 C 50.984375 23.273438 50.429688 24.449219 49.835938 25.628906 C 49.472656 26.355469 49.09375 27.085938 48.667969 27.765625 C 48.472656 28.089844 48.265625 28.386719 48.007812 28.667969 C 47.902344 28.753906 47.796875 28.855469 47.667969 28.941406 C 47.601562 28.988281 47.558594 28.988281 47.515625 28.921875 C 47.457031 28.835938 47.394531 28.753906 47.351562 28.667969 C 47.199219 28.34375 47.15625 27.980469 47.136719 27.640625 C 47.09375 27.105469 47.136719 26.550781 47.199219 26.011719 C 47.285156 25.222656 47.414062 24.429688 47.582031 23.660156 C 47.839844 22.355469 48.15625 21.070312 48.515625 19.785156 C 48.984375 18.160156 49.496094 16.535156 50.070312 14.929688 C 50.472656 13.796875 50.898438 12.660156 51.304688 11.550781 C 51.515625 10.992188 51.707031 10.4375 51.835938 9.878906 C 51.839844 9.871094 51.839844 9.863281 51.84375 9.855469 C 51.882812 9.667969 51.917969 9.503906 51.878906 9.300781 C 51.835938 9.109375 51.726562 8.960938 51.539062 8.832031 C 51.347656 8.746094 51.179688 8.789062 51.007812 8.855469 C 50.667969 9 50.347656 9.171875 50.027344 9.34375 C 49.582031 9.558594 49.136719 9.816406 48.6875 10.03125 C 48.050781 10.394531 47.414062 10.753906 46.773438 11.144531 C 46.328125 11.441406 45.859375 11.742188 45.414062 12.039062 L 44.457031 12.703125 C 44.328125 12.789062 44.328125 12.855469 44.4375 12.941406 L 44.542969 13.003906 C 44.605469 13.046875 44.671875 13.023438 44.730469 12.980469 C 44.773438 12.960938 44.816406 12.921875 44.882812 12.878906 C 45.648438 12.402344 46.394531 11.910156 47.15625 11.441406 C 48.007812 10.929688 48.882812 10.4375 49.773438 9.988281 C 50.199219 9.773438 50.644531 9.558594 51.09375 9.390625 C 51.136719 9.367188 51.179688 9.367188 51.238281 9.34375 C 51.195312 9.410156 51.195312 9.433594 51.179688 9.476562 C 51.027344 9.773438 50.898438 10.074219 50.75 10.371094 C 50.007812 11.910156 49.347656 13.453125 48.753906 15.039062 C 47.753906 17.667969 46.945312 20.339844 46.394531 23.082031 C 46.15625 24.152344 45.988281 25.242188 45.945312 26.335938 C 45.925781 26.847656 45.945312 27.359375 46.054688 27.875 C 46.117188 28.21875 46.199219 28.539062 46.394531 28.816406 C 46.582031 29.136719 46.859375 29.375 47.265625 29.457031 C 47.285156 29.457031 47.328125 29.476562 47.351562 29.5 Z M 24.957031 20.914062 L 24.703125 21.003906 C 24.511719 21.070312 24.34375 21.132812 24.171875 21.199219 C 24.128906 21.199219 24.109375 21.21875 24.066406 21.21875 C 23.855469 21.285156 23.683594 21.308594 23.535156 21.285156 C 23.511719 21.175781 23.472656 21.089844 23.453125 20.984375 C 23.429688 20.960938 23.410156 20.917969 23.410156 20.898438 C 23.324219 20.773438 23.214844 20.707031 23.066406 20.707031 L 22.855469 20.707031 C 22.875 20.664062 22.898438 20.644531 22.898438 20.601562 C 23.640625 19.316406 24.238281 17.992188 24.597656 16.554688 C 24.683594 16.234375 24.726562 15.914062 24.703125 15.59375 C 24.683594 15.398438 24.621094 15.269531 24.449219 15.226562 L 24.410156 15.226562 C 24.128906 15.167969 23.855469 15.550781 23.769531 15.703125 C 23.640625 15.914062 23.511719 16.128906 23.410156 16.339844 C 22.917969 17.304688 22.558594 18.308594 22.238281 19.335938 C 22.074219 19.902344 21.929688 20.445312 21.839844 21.003906 L 21.703125 21.199219 C 21.558594 21.476562 21.386719 21.734375 21.175781 21.992188 C 21.15625 22.03125 20.832031 22.375 20.558594 22.546875 C 20.558594 22.546875 20.28125 22.71875 20.175781 22.503906 C 20.15625 22.484375 20.15625 22.441406 20.132812 22.398438 C 20.113281 22.332031 20.113281 22.289062 20.113281 22.226562 C 20.089844 22.03125 20.089844 21.820312 20.132812 21.625 C 20.199219 21.414062 20.261719 21.175781 20.300781 20.941406 C 20.34375 20.859375 20.367188 20.75 20.367188 20.664062 C 20.386719 20.554688 20.367188 20.449219 20.261719 20.40625 C 20.15625 20.363281 20.046875 20.363281 19.941406 20.449219 L 19.832031 20.511719 C 19.832031 20.511719 19.453125 21.070312 19.429688 21.839844 L 19.429688 22.097656 C 19.472656 22.417969 19.625 22.652344 19.855469 22.804688 C 20.132812 22.976562 20.453125 22.890625 20.667969 22.804688 C 20.917969 22.671875 21.175781 22.503906 21.367188 22.289062 C 21.503906 22.140625 21.632812 21.992188 21.746094 21.835938 C 21.746094 22.078125 21.765625 22.355469 21.832031 22.59375 L 21.832031 22.628906 C 21.832031 22.628906 21.832031 22.652344 21.855469 22.652344 L 21.855469 22.71875 C 21.875 22.71875 21.875 22.738281 21.875 22.761719 C 21.875 22.761719 21.898438 22.78125 21.898438 22.804688 C 22.070312 23.164062 22.386719 23.402344 22.917969 23.316406 C 23.109375 23.292969 23.257812 23.1875 23.367188 22.996094 C 23.429688 22.890625 23.472656 22.78125 23.511719 22.671875 C 23.597656 22.441406 23.597656 22.183594 23.621094 21.949219 L 23.621094 21.90625 C 23.621094 21.90625 23.621094 21.820312 23.597656 21.710938 L 23.660156 21.710938 C 23.769531 21.734375 23.898438 21.710938 24.023438 21.691406 C 24.238281 21.667969 24.535156 21.605469 24.875 21.457031 C 24.847656 21.6875 24.820312 21.964844 24.8125 22.160156 C 24.8125 22.484375 24.832031 23.164062 25.257812 23.402344 C 25.28125 23.402344 25.28125 23.425781 25.300781 23.425781 C 25.363281 23.445312 25.40625 23.46875 25.46875 23.46875 L 25.664062 23.46875 C 25.769531 23.46875 25.871094 23.425781 25.957031 23.382812 L 26.152344 23.25 L 26.296875 23.125 C 26.492188 22.933594 26.664062 22.695312 26.828125 22.484375 C 26.886719 22.40625 26.9375 22.324219 26.984375 22.242188 C 27.046875 22.488281 27.1875 22.679688 27.382812 22.804688 C 27.65625 22.976562 27.980469 22.890625 28.191406 22.804688 C 28.429688 22.683594 28.671875 22.527344 28.855469 22.328125 C 28.824219 22.542969 28.820312 22.753906 28.871094 22.953125 C 28.957031 23.292969 29.167969 23.511719 29.507812 23.554688 C 29.722656 23.574219 29.9375 23.554688 30.148438 23.46875 C 30.320312 23.382812 30.464844 23.25 30.59375 23.125 C 30.828125 22.847656 30.996094 22.546875 31.082031 22.226562 C 31.105469 22.226562 31.105469 22.203125 31.105469 22.203125 C 31.105469 22.160156 31.125 22.140625 31.125 22.097656 C 31.550781 21.984375 31.972656 21.710938 32.257812 21.484375 C 32.230469 21.710938 32.199219 21.980469 32.191406 22.160156 C 32.191406 22.484375 32.210938 23.164062 32.636719 23.402344 C 32.660156 23.402344 32.679688 23.425781 32.679688 23.425781 C 32.738281 23.445312 32.78125 23.46875 32.847656 23.46875 L 33.039062 23.46875 C 33.148438 23.46875 33.25 23.425781 33.335938 23.382812 L 33.53125 23.25 L 33.675781 23.125 C 33.84375 22.957031 33.992188 22.761719 34.140625 22.570312 C 34.15625 22.679688 34.1875 22.789062 34.230469 22.890625 C 34.378906 23.125 34.609375 23.230469 34.847656 23.230469 L 34.867188 23.230469 L 34.867188 23.25 L 34.953125 23.230469 C 35.078125 23.230469 35.207031 23.1875 35.316406 23.125 L 35.335938 23.125 C 35.78125 22.890625 36.164062 22.417969 36.164062 22.417969 C 36.1875 22.417969 36.1875 22.398438 36.207031 22.375 L 36.230469 22.355469 C 36.25 22.3125 36.269531 22.292969 36.289062 22.273438 C 36.273438 22.394531 36.261719 22.519531 36.273438 22.628906 L 36.335938 22.953125 C 36.378906 23.0625 36.484375 23.164062 36.589844 23.230469 L 36.652344 23.273438 C 37.164062 23.511719 37.78125 23.148438 38.164062 22.867188 C 38.273438 22.804688 38.375 22.71875 38.460938 22.609375 C 38.484375 22.59375 38.503906 22.59375 38.503906 22.59375 C 38.558594 22.523438 38.625 22.453125 38.683594 22.386719 C 38.707031 22.4375 38.738281 22.484375 38.777344 22.527344 C 38.929688 22.652344 39.101562 22.695312 39.269531 22.671875 C 39.417969 22.671875 39.546875 22.59375 39.652344 22.460938 C 39.734375 22.355469 39.820312 22.203125 39.90625 22.074219 L 39.972656 22.015625 L 39.929688 22.289062 C 39.90625 22.441406 39.90625 22.609375 39.929688 22.78125 C 39.929688 22.867188 39.949219 22.953125 40.015625 23.019531 C 40.121094 23.148438 40.269531 23.207031 40.460938 23.164062 C 40.605469 23.125 40.757812 23.019531 40.886719 22.910156 C 41.074219 22.71875 41.246094 22.527344 41.398438 22.3125 C 41.542969 22.117188 41.671875 21.929688 41.800781 21.734375 C 41.886719 21.5625 42.054688 21.351562 42.054688 21.15625 C 42.054688 21.089844 42.054688 21.027344 42.011719 20.984375 C 41.988281 20.984375 41.988281 20.960938 41.988281 20.960938 L 41.972656 20.960938 L 41.972656 20.941406 C 41.90625 20.898438 41.820312 20.898438 41.820312 20.898438 C 41.734375 21.046875 41.605469 21.242188 41.503906 21.4375 C 41.460938 21.476562 40.949219 22.269531 40.570312 22.628906 C 40.546875 22.652344 40.503906 22.695312 40.460938 22.71875 C 40.484375 22.609375 40.484375 22.503906 40.503906 22.398438 C 40.605469 22.015625 40.714844 21.605469 40.800781 21.199219 L 40.863281 20.941406 C 40.863281 20.792969 40.820312 20.707031 40.691406 20.644531 C 40.671875 20.644531 40.628906 20.621094 40.585938 20.621094 C 40.546875 20.621094 40.527344 20.601562 40.503906 20.554688 C 40.460938 20.449219 40.375 20.40625 40.289062 20.363281 C 40.058594 20.238281 39.820312 20.257812 39.589844 20.382812 C 39.546875 20.425781 39.484375 20.449219 39.441406 20.492188 C 38.972656 20.878906 38.734375 21.582031 38.71875 21.605469 L 38.714844 21.621094 C 38.605469 21.796875 38.492188 21.976562 38.355469 22.140625 C 37.90625 22.628906 37.460938 22.890625 37.25 22.996094 L 37.207031 22.996094 C 37.164062 23.019531 37.121094 23.039062 37.101562 23.039062 C 37.101562 23.0625 37.078125 23.0625 37.078125 23.0625 C 37.015625 22.953125 36.992188 22.867188 36.972656 22.78125 C 36.929688 22.460938 36.972656 22.140625 37.058594 21.839844 C 37.164062 21.457031 37.292969 21.089844 37.503906 20.75 C 37.546875 20.707031 37.589844 20.664062 37.632812 20.578125 L 37.695312 20.730469 C 37.738281 20.859375 37.71875 21.003906 37.675781 21.132812 C 37.675781 21.144531 37.675781 21.15625 37.671875 21.167969 C 37.667969 21.207031 37.664062 21.25 37.695312 21.285156 C 37.78125 21.351562 37.886719 21.351562 38.015625 21.328125 C 38.101562 21.328125 38.164062 21.285156 38.207031 21.21875 C 38.289062 20.984375 38.273438 20.773438 38.144531 20.554688 C 38.058594 20.363281 37.863281 20.300781 37.632812 20.28125 C 37.441406 20.28125 37.25 20.320312 37.121094 20.449219 C 37.015625 20.535156 36.929688 20.644531 36.867188 20.75 C 36.753906 20.910156 36.667969 21.074219 36.589844 21.242188 L 36.523438 21.351562 C 36.460938 21.457031 35.144531 23.382812 34.847656 22.761719 C 34.824219 22.71875 34.824219 22.671875 34.804688 22.628906 C 34.761719 22.398438 34.804688 22.140625 34.867188 21.90625 C 34.996094 21.839844 35.121094 21.796875 35.25 21.710938 C 35.589844 21.476562 35.78125 21.132812 35.910156 20.730469 C 35.933594 20.601562 35.953125 20.363281 35.675781 20.28125 C 35.609375 20.257812 35.523438 20.257812 35.464844 20.28125 C 35.078125 20.320312 34.78125 20.511719 34.550781 20.878906 C 34.386719 21.117188 34.277344 21.367188 34.199219 21.632812 C 34.050781 21.90625 33.894531 22.171875 33.695312 22.417969 C 33.675781 22.441406 33.636719 22.503906 33.574219 22.570312 C 33.507812 22.628906 33.402344 22.738281 33.273438 22.847656 C 33.019531 23.019531 32.976562 22.847656 32.976562 22.71875 L 32.976562 22.441406 C 32.996094 22.332031 32.996094 22.226562 32.996094 22.117188 C 33.125 21.046875 33.335938 19.980469 33.617188 18.929688 L 33.867188 17.96875 L 33.996094 17.96875 C 34.53125 17.925781 35.058594 17.90625 35.589844 17.882812 C 36.503906 17.839844 37.417969 17.796875 38.332031 17.820312 C 38.339844 17.820312 38.347656 17.820312 38.359375 17.824219 C 38.378906 17.828125 38.40625 17.832031 38.417969 17.820312 C 38.527344 17.820312 38.570312 17.753906 38.527344 17.667969 C 38.460938 17.558594 38.355469 17.515625 38.25 17.496094 C 38.144531 17.476562 38.035156 17.476562 37.929688 17.476562 L 36.316406 17.476562 C 35.546875 17.496094 34.78125 17.539062 34.019531 17.558594 L 33.996094 17.558594 C 34.082031 17.199219 34.1875 16.855469 34.273438 16.492188 C 34.316406 16.402344 34.25 16.234375 33.933594 16.191406 C 33.675781 16.148438 33.617188 16.257812 33.59375 16.300781 C 33.59375 16.324219 33.574219 16.324219 33.574219 16.339844 C 33.445312 16.75 33.292969 17.175781 33.167969 17.601562 C 32.953125 17.601562 32.761719 17.601562 32.574219 17.625 C 31.996094 17.6875 31.421875 17.730469 30.851562 17.820312 C 30.191406 17.925781 29.53125 18.050781 28.871094 18.160156 C 28.785156 18.179688 28.742188 18.246094 28.785156 18.308594 C 28.808594 18.375 28.851562 18.417969 28.914062 18.4375 C 29.027344 18.554688 29.195312 18.53125 29.347656 18.507812 C 29.371094 18.507812 29.386719 18.503906 29.40625 18.503906 C 30.105469 18.394531 30.808594 18.265625 31.507812 18.179688 C 31.996094 18.117188 32.464844 18.074219 32.953125 18.035156 L 33.039062 18.035156 C 33.019531 18.074219 32.996094 18.09375 32.996094 18.136719 C 32.691406 19.058594 32.464844 19.984375 32.332031 20.921875 C 32.214844 21.039062 31.710938 21.503906 31.191406 21.691406 L 31.191406 21.648438 C 31.191406 21.5625 31.167969 21.476562 31.167969 21.394531 C 31.148438 21.199219 31.105469 21.003906 30.996094 20.835938 C 30.828125 20.578125 30.53125 20.492188 30.253906 20.621094 C 30.234375 20.621094 30.210938 20.644531 30.167969 20.644531 L 30.339844 20.382812 C 30.425781 20.300781 30.40625 20.238281 30.277344 20.195312 C 30.125 20.152344 29.976562 20.171875 29.851562 20.28125 C 29.765625 20.363281 29.679688 20.46875 29.59375 20.578125 C 29.445312 20.785156 29.320312 21.007812 29.210938 21.238281 C 29.070312 21.5 28.902344 21.746094 28.699219 21.992188 C 28.679688 22.03125 28.363281 22.375 28.085938 22.546875 C 28.085938 22.546875 27.808594 22.71875 27.699219 22.503906 C 27.679688 22.484375 27.679688 22.441406 27.65625 22.398438 C 27.640625 22.332031 27.640625 22.289062 27.640625 22.226562 C 27.621094 22.03125 27.621094 21.820312 27.65625 21.625 C 27.722656 21.414062 27.785156 21.175781 27.828125 20.941406 C 27.871094 20.859375 27.894531 20.75 27.894531 20.664062 C 27.914062 20.554688 27.894531 20.449219 27.785156 20.40625 C 27.679688 20.363281 27.578125 20.363281 27.46875 20.449219 L 27.363281 20.511719 C 27.363281 20.511719 27.1875 20.769531 27.066406 21.171875 L 27 21.308594 C 26.785156 21.691406 26.597656 22.074219 26.320312 22.417969 C 26.296875 22.441406 26.257812 22.503906 26.195312 22.570312 C 26.128906 22.628906 26.023438 22.738281 25.894531 22.847656 C 25.640625 23.019531 25.597656 22.847656 25.597656 22.71875 L 25.597656 22.441406 C 25.621094 22.332031 25.621094 22.226562 25.621094 22.117188 C 25.746094 21.046875 25.9375 19.980469 26.238281 18.929688 C 26.449219 18.117188 26.683594 17.304688 26.894531 16.492188 C 26.914062 16.402344 26.871094 16.234375 26.554688 16.191406 C 26.296875 16.148438 26.238281 16.257812 26.214844 16.300781 C 26.195312 16.324219 26.195312 16.324219 26.195312 16.339844 L 25.621094 18.136719 C 25.316406 19.058594 25.085938 19.980469 24.957031 20.914062 Z M 24.195312 16.128906 C 24.238281 16.726562 23.386719 19.082031 22.898438 19.746094 C 23.238281 18.503906 23.660156 17.304688 24.195312 16.128906 Z M 80.605469 21.003906 C 80.433594 20.792969 80.304688 20.960938 80.304688 20.960938 L 80.136719 21.308594 C 79.921875 21.691406 79.734375 22.074219 79.453125 22.417969 C 79.433594 22.441406 79.390625 22.503906 79.328125 22.570312 C 79.265625 22.628906 79.160156 22.738281 79.03125 22.847656 C 78.777344 23.019531 78.734375 22.847656 78.734375 22.71875 L 78.734375 22.441406 C 78.753906 22.332031 78.753906 22.226562 78.753906 22.117188 C 78.882812 21.046875 79.074219 19.980469 79.367188 18.929688 C 79.582031 18.117188 79.816406 17.304688 80.03125 16.492188 C 80.050781 16.402344 80.007812 16.234375 79.691406 16.191406 C 79.433594 16.148438 79.367188 16.257812 79.347656 16.300781 C 79.328125 16.324219 79.328125 16.324219 79.328125 16.34375 L 78.753906 18.136719 C 78.445312 19.070312 78.21875 20 78.085938 20.949219 C 78.003906 21.089844 77.890625 21.265625 77.796875 21.4375 C 77.753906 21.476562 77.242188 22.269531 76.863281 22.628906 C 76.839844 22.652344 76.796875 22.695312 76.753906 22.71875 C 76.777344 22.609375 76.777344 22.503906 76.796875 22.398438 C 76.90625 22.015625 77.011719 21.605469 77.09375 21.199219 L 77.160156 20.941406 C 77.160156 20.792969 77.117188 20.707031 76.992188 20.644531 C 76.96875 20.644531 76.925781 20.621094 76.882812 20.621094 C 76.839844 20.621094 76.820312 20.601562 76.796875 20.554688 C 76.753906 20.449219 76.667969 20.40625 76.582031 20.363281 C 76.351562 20.238281 76.117188 20.257812 75.882812 20.382812 C 75.839844 20.425781 75.777344 20.449219 75.734375 20.492188 C 75.558594 20.636719 75.414062 20.828125 75.304688 21.011719 L 73.820312 22.160156 L 73.054688 21.199219 L 73.3125 20.941406 C 73.5 20.707031 73.628906 20.449219 73.695312 20.152344 C 73.738281 19.871094 73.585938 19.636719 73.3125 19.574219 C 73.121094 19.53125 72.949219 19.574219 72.78125 19.679688 C 72.25 19.980469 72.078125 20.6875 72.355469 21.21875 C 72.359375 21.21875 72.367188 21.230469 72.386719 21.25 L 70.460938 23.722656 C 70.503906 23.597656 70.570312 23.46875 70.628906 23.316406 C 70.757812 22.996094 70.929688 22.652344 70.996094 22.3125 C 71.140625 21.605469 70.867188 21.328125 70.375 21.175781 C 70.246094 21.15625 70.121094 21.113281 69.972656 21.089844 C 69.886719 21.046875 69.757812 21.027344 69.695312 20.941406 L 69.757812 20.773438 C 70.082031 20.023438 70.3125 19.292969 70.460938 18.527344 C 70.527344 18.222656 70.585938 17.925781 70.570312 17.644531 C 70.527344 17.261719 70.332031 17.113281 69.953125 17.15625 C 69.824219 17.175781 69.695312 17.242188 69.613281 17.328125 C 69.398438 17.496094 69.246094 17.710938 69.125 17.949219 C 68.71875 18.671875 68.570312 19.402344 68.613281 20.171875 C 68.613281 20.425781 68.675781 20.6875 68.824219 20.898438 C 68.878906 20.980469 68.941406 21.046875 69.015625 21.109375 L 68.929688 21.242188 L 68.867188 21.351562 C 68.800781 21.457031 67.484375 23.382812 67.1875 22.761719 C 67.167969 22.71875 67.167969 22.671875 67.144531 22.628906 C 67.101562 22.398438 67.144531 22.140625 67.210938 21.90625 C 67.339844 21.839844 67.460938 21.796875 67.589844 21.710938 C 67.929688 21.476562 68.125 21.132812 68.253906 20.730469 C 68.273438 20.601562 68.289062 20.363281 68.015625 20.28125 C 67.953125 20.257812 67.867188 20.257812 67.804688 20.28125 C 67.417969 20.320312 67.125 20.511719 66.886719 20.878906 C 66.65625 21.21875 66.527344 21.582031 66.460938 21.992188 C 66.460938 22.007812 66.460938 22.035156 66.460938 22.066406 C 66.453125 22.246094 66.441406 22.613281 66.570312 22.890625 C 66.71875 23.125 66.953125 23.230469 67.1875 23.230469 L 67.210938 23.230469 L 67.210938 23.25 L 67.296875 23.230469 C 67.417969 23.230469 67.546875 23.1875 67.65625 23.125 L 67.675781 23.125 C 68.125 22.890625 68.503906 22.417969 68.503906 22.417969 C 68.527344 22.417969 68.527344 22.398438 68.546875 22.375 L 68.570312 22.355469 C 68.589844 22.3125 68.613281 22.289062 68.632812 22.269531 C 68.699219 22.203125 68.738281 22.160156 68.78125 22.097656 C 68.867188 21.992188 68.953125 21.882812 69.039062 21.753906 L 69.226562 21.476562 C 69.261719 21.425781 69.289062 21.367188 69.324219 21.308594 C 69.445312 21.363281 69.558594 21.398438 69.632812 21.414062 C 69.738281 21.457031 69.867188 21.476562 69.996094 21.496094 C 70.140625 21.539062 70.207031 21.625 70.246094 21.777344 C 70.289062 21.972656 70.289062 22.160156 70.226562 22.355469 C 70.183594 22.484375 70.140625 22.628906 70.082031 22.78125 C 70.082031 22.804688 69.867188 23.25 69.757812 23.703125 L 69.757812 23.742188 C 69.695312 24.066406 69.671875 24.363281 69.84375 24.472656 C 70.140625 24.621094 70.398438 24.363281 70.570312 24.175781 L 70.652344 24.089844 L 72.605469 21.546875 C 72.613281 21.5625 72.621094 21.570312 72.628906 21.582031 C 72.695312 21.648438 72.757812 21.734375 72.824219 21.796875 C 72.867188 21.839844 72.867188 21.863281 72.882812 21.882812 C 73.035156 22.074219 73.183594 22.269531 73.269531 22.503906 C 73.25 22.527344 73.25 22.527344 73.25 22.546875 C 73.207031 22.570312 73.140625 22.609375 73.097656 22.652344 C 72.566406 23.0625 72.121094 23.554688 71.757812 24.109375 C 71.652344 24.300781 71.398438 24.839844 71.695312 25.179688 C 71.78125 25.265625 72.054688 25.476562 72.585938 25.351562 L 72.585938 25.328125 C 72.628906 25.328125 72.671875 25.308594 72.714844 25.308594 L 72.738281 25.308594 C 73.035156 25.199219 73.3125 25.007812 73.542969 24.730469 C 73.757812 24.449219 73.925781 24.132812 74.035156 23.785156 C 74.097656 23.511719 74.140625 23.230469 74.097656 22.953125 C 74.097656 22.804688 74.011719 22.503906 74.011719 22.503906 L 75 21.660156 C 74.960938 21.832031 74.925781 22.007812 74.925781 22.203125 C 74.949219 22.332031 74.992188 22.441406 75.078125 22.527344 C 75.222656 22.652344 75.394531 22.695312 75.566406 22.671875 C 75.710938 22.671875 75.839844 22.59375 75.949219 22.460938 C 76.035156 22.355469 76.117188 22.203125 76.199219 22.074219 L 76.265625 22.015625 L 76.222656 22.289062 C 76.199219 22.441406 76.199219 22.609375 76.222656 22.78125 C 76.222656 22.867188 76.242188 22.953125 76.308594 23.019531 C 76.414062 23.148438 76.566406 23.207031 76.753906 23.164062 C 76.90625 23.125 77.050781 23.019531 77.179688 22.910156 C 77.371094 22.71875 77.539062 22.527344 77.691406 22.3125 C 77.789062 22.1875 77.875 22.058594 77.960938 21.933594 C 77.957031 22.015625 77.949219 22.097656 77.949219 22.160156 C 77.949219 22.484375 77.964844 23.164062 78.394531 23.402344 C 78.414062 23.402344 78.414062 23.425781 78.433594 23.425781 C 78.496094 23.445312 78.539062 23.46875 78.605469 23.46875 L 78.796875 23.46875 C 78.902344 23.46875 79.007812 23.425781 79.09375 23.382812 L 79.285156 23.25 L 79.433594 23.125 C 79.625 22.933594 79.796875 22.695312 79.964844 22.484375 C 80.117188 22.269531 80.246094 22.03125 80.367188 21.820312 C 80.476562 21.625 80.648438 21.414062 80.667969 21.199219 C 80.667969 21.113281 80.648438 21.046875 80.605469 21.003906 Z M 69.398438 20.300781 C 69.417969 20.238281 69.460938 20.195312 69.460938 20.152344 C 69.570312 19.828125 69.695312 19.53125 69.78125 19.230469 C 69.910156 18.757812 70.039062 18.308594 70.058594 17.839844 C 70.058594 17.777344 70.039062 17.710938 70.039062 17.625 C 69.527344 18.308594 69.226562 19.679688 69.398438 20.300781 Z M 20.539062 19.402344 C 20.472656 19.445312 20.386719 19.445312 20.324219 19.445312 C 20.15625 19.421875 20.113281 19.335938 20.175781 19.167969 C 20.242188 19.039062 20.410156 18.953125 20.539062 19.015625 C 20.625 19.058594 20.6875 19.230469 20.644531 19.316406 C 20.625 19.359375 20.582031 19.402344 20.539062 19.402344 Z M 27.851562 19.445312 C 27.914062 19.445312 28 19.445312 28.066406 19.402344 C 28.109375 19.402344 28.148438 19.359375 28.167969 19.316406 C 28.210938 19.230469 28.148438 19.058594 28.066406 19.015625 C 27.9375 18.953125 27.765625 19.039062 27.699219 19.167969 C 27.640625 19.335938 27.679688 19.421875 27.851562 19.445312 Z M 62.316406 19.445312 C 62.378906 19.445312 62.464844 19.445312 62.53125 19.402344 C 62.574219 19.402344 62.617188 19.359375 62.636719 19.316406 C 62.679688 19.230469 62.617188 19.058594 62.53125 19.015625 C 62.402344 18.953125 62.234375 19.039062 62.171875 19.167969 C 62.105469 19.335938 62.148438 19.421875 62.316406 19.445312 Z M 72.90625 20.816406 C 72.867188 20.449219 72.96875 20.152344 73.207031 19.871094 C 73.335938 20.128906 73.183594 20.578125 72.90625 20.816406 Z M 39.820312 21.582031 C 39.972656 21.351562 40.101562 21.089844 40.246094 20.859375 C 40.269531 20.816406 40.269531 20.792969 40.289062 20.773438 C 40.226562 20.707031 40.140625 20.664062 40.078125 20.601562 C 39.949219 20.664062 39.84375 20.773438 39.757812 20.878906 C 39.503906 21.21875 39.332031 21.625 39.226562 22.054688 C 39.226562 22.140625 39.226562 22.203125 39.203125 22.289062 C 39.246094 22.269531 39.246094 22.269531 39.269531 22.269531 C 39.289062 22.246094 39.3125 22.226562 39.355469 22.203125 C 39.546875 22.03125 39.691406 21.796875 39.820312 21.582031 Z M 76.117188 21.582031 C 76.265625 21.351562 76.394531 21.089844 76.542969 20.859375 C 76.566406 20.816406 76.566406 20.792969 76.582031 20.773438 C 76.523438 20.707031 76.4375 20.664062 76.371094 20.601562 C 76.242188 20.664062 76.136719 20.773438 76.054688 20.878906 C 75.796875 21.21875 75.628906 21.625 75.523438 22.054688 C 75.523438 22.140625 75.523438 22.203125 75.5 22.289062 C 75.542969 22.269531 75.542969 22.269531 75.566406 22.269531 C 75.585938 22.246094 75.609375 22.226562 75.648438 22.203125 C 75.839844 22.03125 75.992188 21.796875 76.117188 21.582031 Z M 30.65625 21.753906 L 30.679688 21.753906 C 30.722656 21.519531 30.722656 21.285156 30.636719 21.070312 C 30.636719 21.070312 30.53125 20.730469 30.40625 20.707031 C 30.339844 20.707031 30.253906 20.898438 30.253906 21.132812 C 30.253906 21.605469 30.574219 21.734375 30.65625 21.753906 Z M 34.996094 21.519531 C 35.207031 21.371094 35.402344 21.046875 35.402344 20.792969 C 35.25 20.917969 35.039062 21.308594 34.996094 21.519531 Z M 67.742188 20.792969 C 67.742188 21.046875 67.546875 21.371094 67.339844 21.519531 C 67.375 21.308594 67.589844 20.917969 67.742188 20.792969 Z M 22.941406 22.71875 C 22.898438 22.804688 22.832031 22.867188 22.789062 22.953125 C 22.660156 22.867188 22.617188 22.738281 22.582031 22.609375 C 22.496094 22.332031 22.496094 22.03125 22.515625 21.710938 L 22.582031 21.132812 C 22.597656 21.089844 22.617188 21.046875 22.617188 21.027344 C 22.617188 21.027344 22.746094 21.351562 23.085938 21.5625 C 23.109375 21.949219 23.109375 22.332031 22.941406 22.71875 Z M 29.492188 22.890625 C 29.507812 23.039062 29.550781 23.164062 29.699219 23.273438 C 30.234375 23.039062 30.445312 22.59375 30.613281 22.117188 C 30.613281 22.117188 29.644531 21.839844 29.867188 21.121094 C 29.851562 21.183594 29.71875 21.597656 29.65625 21.753906 C 29.59375 21.929688 29.550781 22.097656 29.507812 22.269531 C 29.46875 22.484375 29.449219 22.671875 29.492188 22.890625 Z M 16.792969 24.066406 C 16.964844 23.703125 17.113281 23.292969 17.21875 22.890625 C 17.285156 22.628906 17.328125 22.398438 17.347656 22.183594 C 16.15625 22.269531 15.117188 22.570312 14.347656 22.824219 C 14.304688 22.847656 14.285156 22.867188 14.246094 22.867188 C 12.988281 23.359375 11.820312 23.957031 10.796875 24.816406 C 10.417969 25.136719 10.054688 25.476562 9.734375 25.886719 C 9.546875 26.140625 9.375 26.421875 9.265625 26.71875 C 9.140625 27.105469 9.097656 27.488281 9.222656 27.917969 C 9.394531 28.472656 9.820312 28.898438 10.375 28.988281 C 10.523438 29.03125 10.691406 29.03125 10.839844 29.03125 C 11.332031 29.03125 11.777344 28.878906 12.203125 28.6875 C 14.304688 27.703125 15.859375 26.183594 16.792969 24.066406 Z M 73.371094 23.445312 C 73.269531 23.914062 73.078125 24.34375 72.757812 24.707031 C 72.628906 24.839844 72.5 24.941406 72.332031 25.007812 C 72.183594 25.070312 72.097656 25.007812 72.097656 24.839844 C 72.121094 24.753906 72.140625 24.644531 72.183594 24.558594 C 72.457031 23.957031 72.84375 23.46875 73.335938 23.039062 C 73.351562 23.019531 73.351562 23.019531 73.394531 23.019531 C 73.414062 23.164062 73.394531 23.316406 73.371094 23.445312 Z M 73.371094 23.445312 "/>
</g>
</svg>
